HIERARCHY
ROOT joint_Root
{
	OFFSET 0.0 0.0 0.0
	CHANNELS 6 Xposition Yposition Zposition Zrotation Xrotation Yrotation 
	JOINT Hips
	{
		OFFSET 4.5925 91.4895 -427.239
		CHANNELS 6 Xposition Yposition Zposition Zrotation Xrotation Yrotation 
		JOINT Spine
		{
			OFFSET 15.7357 0.0 0.0
			CHANNELS 6 Xposition Yposition Zposition Zrotation Xrotation Yrotation 
			JOINT Chest
			{
				OFFSET 8.98455 -0.406207 0.0
				CHANNELS 6 Xposition Yposition Zposition Zrotation Xrotation Yrotation 
				JOINT Neck
				{
					OFFSET 16.3773 0.0 0.0
					CHANNELS 6 Xposition Yposition Zposition Zrotation Xrotation Yrotation 
					JOINT Head
					{
						OFFSET 6.45672 0.0 0.0
						CHANNELS 6 Xposition Yposition Zposition Zrotation Xrotation Yrotation 
						End Site
						{
							OFFSET 0.0 0.0 0.0
						}
					}
				}
				JOINT Shoulder_L
				{
					OFFSET 12.9942 -0.242716 4.98039
					CHANNELS 6 Xposition Yposition Zposition Zrotation Xrotation Yrotation 
					JOINT UpperArm_L
					{
						OFFSET 5.34809 0.0 0.0
						CHANNELS 6 Xposition Yposition Zposition Zrotation Xrotation Yrotation 
						JOINT LowerArm_L
						{
							OFFSET 24.3286 1.87007e-05 0.0
							CHANNELS 6 Xposition Yposition Zposition Zrotation Xrotation Yrotation 
							JOINT Hand_L
							{
								OFFSET 22.2916 0.0 0.0
								CHANNELS 6 Xposition Yposition Zposition Zrotation Xrotation Yrotation 
								End Site
								{
									OFFSET 0.0 0.0 0.0
								}
							}
						}
					}
				}
				JOINT Shoulder_R
				{
					OFFSET 12.9945 -0.242716 -4.98039
					CHANNELS 6 Xposition Yposition Zposition Zrotation Xrotation Yrotation 
					JOINT UpperArm_R
					{
						OFFSET -5.34813 0.0 0.0
						CHANNELS 6 Xposition Yposition Zposition Zrotation Xrotation Yrotation 
						JOINT LowerArm_R
						{
							OFFSET -24.3289 0.000322201 0.0
							CHANNELS 6 Xposition Yposition Zposition Zrotation Xrotation Yrotation 
							JOINT Hand_R
							{
								OFFSET -22.2915 -0.000108084 0.0
								CHANNELS 6 Xposition Yposition Zposition Zrotation Xrotation Yrotation 
								End Site
								{
									OFFSET 0.0 0.0 0.0
								}
							}
						}
					}
				}
			}
		}
		JOINT UpperLeg_L
		{
			OFFSET -2.19248 -6.46944 0.0
			CHANNELS 6 Xposition Yposition Zposition Zrotation Xrotation Yrotation 
			JOINT LowerLeg_L
			{
				OFFSET 39.0811 0.0 -1.23785e-05
				CHANNELS 6 Xposition Yposition Zposition Zrotation Xrotation Yrotation 
				JOINT Foot_L
				{
					OFFSET 40.9854 0.0 -1.26872e-05
					CHANNELS 6 Xposition Yposition Zposition Zrotation Xrotation Yrotation 
					JOINT Toes_L
					{
						OFFSET 11.7543 0.0 0.0
						CHANNELS 6 Xposition Yposition Zposition Zrotation Xrotation Yrotation 
						End Site
						{
							OFFSET 0.0 0.0 0.0
						}
					}
				}
			}
		}
		JOINT UpperLeg_R
		{
			OFFSET -2.19251 6.46944 0.0
			CHANNELS 6 Xposition Yposition Zposition Zrotation Xrotation Yrotation 
			JOINT LowerLeg_R
			{
				OFFSET -39.0811 -0.00228153 -0.0401928
				CHANNELS 6 Xposition Yposition Zposition Zrotation Xrotation Yrotation 
				JOINT Foot_R
				{
					OFFSET -40.9854 0.0 0.0
					CHANNELS 6 Xposition Yposition Zposition Zrotation Xrotation Yrotation 
					JOINT Toes_R
					{
						OFFSET -11.7543 0.0 0.0
						CHANNELS 6 Xposition Yposition Zposition Zrotation Xrotation Yrotation 
						End Site
						{
							OFFSET 0.0 0.0 0.0
						}
					}
				}
			}
		}
	}
}
MOTION
Frames:	8
Frame Time:	0.0333333
0.000000 0.000000 0.000000 0.000000 0.000000 -0.000000 -1.012090 90.610900 0.383933 90.175600 -3.376110 13.268700 15.735700 0.000005 -0.000001 86.673100 81.081100 -86.874800 8.984550 -0.406207 -0.000000 10.041100 -1.032610 -0.312546 16.377300 -0.000001 -0.000001 11.206300 -4.686630 0.728311 6.456720 -0.000001 -0.000000 4.014030 -4.972860 -3.753410 12.994200 -0.242716 4.980390 -91.417400 5.608830 -75.793700 5.348090 -0.000007 -0.000001 -62.318500 38.230700 -18.090700 24.328600 0.000019 0.000005 7.853080 20.962800 -21.083000 22.291600 -0.000001 0.000005 6.735790 5.266490 0.992833 12.994500 -0.242716 -4.980390 88.733700 9.824830 -82.618800 -5.348130 -0.000001 -0.000004 -63.760200 34.521400 -11.949500 -24.328900 0.000322 -0.000009 1.805940 5.128760 -19.438700 -22.291500 -0.000108 -0.000004 12.370400 5.404920 -3.097940 -2.192480 -6.469440 -0.000000 -173.804000 -13.126900 3.760250 39.081100 -0.000007 -0.000012 -0.199432 0.333786 30.858000 40.985400 -0.000006 -0.000013 -0.141366 5.595490 -70.831300 11.754300 -0.000000 0.000003 -0.000202 -0.001866 -16.647900 -2.192510 6.469440 -0.000001 171.746000 21.616500 -174.905000 -39.081100 -0.002282 -0.040193 -0.223139 0.377850 30.933900 -40.985400 0.000008 0.000006 3.974970 14.203600 -72.051300 -11.754300 -0.000006 -0.000006 -0.001995 -0.028648 -17.738000
0.000000 0.000000 0.000000 0.000000 0.000000 -0.000000 -1.010770 90.612900 0.263168 90.180300 -3.398130 13.475800 15.735700 0.000005 -0.000001 86.758200 81.043600 -86.947300 8.984550 -0.406207 -0.000000 10.117500 -1.010310 -0.288570 16.377300 -0.000001 -0.000001 11.373600 -4.577180 0.614919 6.456720 -0.000001 -0.000000 3.870310 -4.789690 -4.395150 12.994200 -0.242716 4.980390 -91.415200 5.643510 -75.898000 5.348090 -0.000007 -0.000001 -62.027800 37.825700 -18.416900 24.328600 0.000019 0.000005 8.110090 20.839500 -21.829100 22.291600 -0.000001 0.000005 6.424260 5.265530 1.018750 12.994500 -0.242716 -4.980390 88.769900 9.646180 -82.697700 -5.348130 -0.000001 -0.000004 -63.829400 34.077200 -12.038100 -24.328900 0.000322 -0.000009 1.790000 4.999110 -19.740500 -22.291500 -0.000108 -0.000004 12.213100 5.405700 -3.123620 -2.192480 -6.469440 -0.000000 -173.774000 -13.116200 3.864170 39.081100 -0.000007 -0.000012 -0.197620 0.330257 30.895900 40.985400 -0.000006 -0.000013 -0.136663 5.586820 -70.763800 11.754300 -0.000000 0.000003 -0.000212 -0.001942 -16.650700 -2.192510 6.469440 -0.000001 171.685000 21.612400 -174.807000 -39.081100 -0.002282 -0.040193 -0.222919 0.376700 30.986300 -40.985400 0.000008 0.000006 4.003060 14.239700 -71.991900 -11.754300 -0.000006 -0.000006 -0.001920 -0.027716 -17.700100
0.000000 0.000000 0.000000 0.000000 0.000000 -0.000000 -1.002230 90.618100 0.136400 90.184300 -3.361920 13.592300 15.735700 0.000005 -0.000001 86.873400 81.030600 -87.048200 8.984550 -0.406207 -0.000000 10.145800 -0.975733 -0.262779 16.377300 -0.000001 -0.000001 11.427200 -4.522680 0.439869 6.456720 -0.000001 -0.000000 3.724700 -4.749790 -4.949230 12.994200 -0.242716 4.980390 -91.403600 5.651270 -76.027200 5.348090 -0.000007 -0.000001 -61.535900 37.357200 -19.020000 24.328600 0.000019 0.000005 8.415790 20.703500 -22.708600 22.291600 -0.000001 0.000005 6.435020 5.266530 0.991768 12.994500 -0.242716 -4.980390 88.796400 9.498780 -82.744400 -5.348130 -0.000001 -0.000004 -63.771600 33.433900 -12.179200 -24.328900 0.000322 -0.000009 1.811540 4.915850 -20.269100 -22.291500 -0.000108 -0.000004 12.415100 5.402410 -3.016100 -2.192480 -6.469440 -0.000000 -173.774000 -13.099700 3.865400 39.081100 -0.000007 -0.000012 -0.198534 0.331355 30.928500 40.985400 -0.000006 -0.000013 -0.113663 5.610050 -70.685800 11.754300 -0.000000 0.000003 -0.000214 -0.001963 -16.651500 -2.192510 6.469440 -0.000001 171.667000 21.639100 -174.799000 -39.081100 -0.002282 -0.040193 -0.220915 0.372781 31.025700 -40.985400 0.000008 0.000006 4.020920 14.228400 -71.922900 -11.754300 -0.000006 -0.000006 -0.001814 -0.026361 -17.645000
0.000000 0.000000 0.000000 0.000000 0.000000 -0.000000 -1.001580 90.621300 0.019882 90.178100 -3.332420 13.741400 15.735700 0.000005 -0.000001 86.905600 81.017300 -87.058100 8.984550 -0.406207 -0.000000 10.173000 -0.966683 -0.218656 16.377300 -0.000001 -0.000001 11.547100 -4.506060 0.358031 6.456720 -0.000001 -0.000000 3.484800 -4.695340 -5.698700 12.994200 -0.242716 4.980390 -91.386300 5.637080 -76.159800 5.348090 -0.000007 -0.000001 -60.890700 36.834900 -19.764300 24.328600 0.000019 0.000005 8.695310 20.351500 -23.737600 22.291600 -0.000001 0.000005 6.395810 5.271300 0.862989 12.994500 -0.242716 -4.980390 88.833600 9.318760 -82.833100 -5.348130 -0.000001 -0.000004 -63.536700 32.649500 -12.462300 -24.328900 0.000322 -0.000009 1.871220 4.880350 -21.018900 -22.291500 -0.000108 -0.000004 12.291200 5.403220 -3.042360 -2.192480 -6.469440 -0.000000 -173.752000 -13.081400 3.913930 39.081100 -0.000007 -0.000012 -0.195454 0.325740 30.965400 40.985400 -0.000006 -0.000013 -0.095277 5.634820 -70.623900 11.754300 -0.000000 0.000003 -0.000196 -0.001819 -16.646200 -2.192510 6.469440 -0.000001 171.612000 21.715500 -174.728000 -39.081100 -0.002282 -0.040193 -0.220871 0.372237 31.057800 -40.985400 0.000008 0.000006 4.058920 14.302200 -71.867800 -11.754300 -0.000006 -0.000006 -0.001845 -0.026761 -17.661300
0.000000 0.000000 0.000000 0.000000 0.000000 -0.000000 -0.987391 90.629700 -0.141185 90.202800 -3.286820 13.869000 15.735700 0.000005 -0.000001 86.953700 81.014600 -87.102700 8.984550 -0.406207 -0.000000 10.179100 -0.951951 -0.213122 16.377300 -0.000001 -0.000001 11.660200 -4.480760 0.222550 6.456720 -0.000001 -0.000000 3.384950 -4.625260 -6.304320 12.994200 -0.242716 4.980390 -91.350700 5.574390 -76.356900 5.348090 -0.000007 -0.000001 -59.957500 36.146700 -20.837600 24.328600 0.000019 0.000005 9.233390 20.380900 -25.022300 22.291600 -0.000001 0.000005 5.960450 5.277570 0.692484 12.994500 -0.242716 -4.980390 88.872500 9.119480 -82.921200 -5.348130 -0.000001 -0.000004 -63.013200 31.798700 -13.016200 -24.328900 0.000322 -0.000009 1.987820 4.914590 -22.065300 -22.291500 -0.000108 -0.000004 12.331100 5.403690 -3.057770 -2.192480 -6.469440 -0.000000 -173.778000 -13.076300 3.907260 39.081100 -0.000007 -0.000012 -0.193223 0.321790 30.983600 40.985400 -0.000006 -0.000013 -0.066317 5.661530 -70.514300 11.754300 -0.000000 0.000003 -0.000214 -0.001963 -16.651500 -2.192510 6.469440 -0.000001 171.595000 21.685800 -174.739000 -39.081100 -0.002282 -0.040193 -0.217972 0.366776 31.102400 -40.985400 0.000008 0.000006 4.055000 14.225100 -71.777700 -11.754300 -0.000006 -0.000006 -0.001849 -0.026815 -17.663500
0.000000 0.000000 0.000000 0.000000 0.000000 -0.000000 -0.989142 90.642000 -0.310002 90.199800 -3.157560 14.028800 15.735700 0.000005 -0.000001 86.825800 81.020400 -86.972800 8.984550 -0.406207 -0.000000 10.165500 -0.991062 -0.205715 16.377300 -0.000001 -0.000001 11.917800 -4.417640 0.027646 6.456720 -0.000001 -0.000000 3.408050 -4.509080 -6.744260 12.994200 -0.242716 4.980390 -91.304800 5.479440 -76.583700 5.348090 -0.000007 -0.000001 -58.555100 35.452600 -22.399800 24.328600 0.000019 0.000005 9.864360 20.536700 -26.366400 22.291600 -0.000001 0.000005 5.531400 5.277390 0.697490 12.994500 -0.242716 -4.980390 88.916300 8.865610 -83.002300 -5.348130 -0.000001 -0.000004 -62.194100 30.966500 -13.834500 -24.328900 0.000322 -0.000009 2.113900 4.864500 -23.532600 -22.291500 -0.000108 -0.000004 12.297100 5.403420 -3.049080 -2.192480 -6.469440 -0.000000 -173.773000 -13.001600 3.914770 39.081100 -0.000007 -0.000012 -0.193788 0.322523 30.999800 40.985400 -0.000006 -0.000013 -0.044135 5.705850 -70.387500 11.754300 -0.000000 0.000003 -0.000217 -0.001980 -16.652100 -2.192510 6.469440 -0.000001 171.564000 21.798900 -174.678000 -39.081100 -0.002282 -0.040193 -0.209921 0.353323 31.110100 -40.985400 0.000008 0.000006 4.078650 14.200700 -71.674900 -11.754300 -0.000006 -0.000006 -0.001714 -0.025079 -17.592900
0.000000 0.000000 0.000000 0.000000 0.000000 -0.000000 -0.974370 90.649100 -0.501678 90.231100 -3.068810 14.184400 15.735700 0.000005 -0.000001 86.789600 81.031700 -86.960600 8.984550 -0.406207 -0.000000 10.142000 -1.001560 -0.252966 16.377300 -0.000001 -0.000001 12.135300 -4.337300 -0.107562 6.456720 -0.000001 -0.000000 3.754460 -4.347090 -7.080090 12.994200 -0.242716 4.980390 -91.244600 5.352420 -76.889000 5.348090 -0.000007 -0.000001 -56.607400 34.498600 -24.548400 24.328600 0.000019 0.000005 10.498500 20.711100 -27.654000 22.291600 -0.000001 0.000005 4.945720 5.281850 0.575519 12.994500 -0.242716 -4.980390 88.956300 8.604010 -83.057200 -5.348130 -0.000001 -0.000004 -60.948100 30.054500 -15.072900 -24.328900 0.000322 -0.000009 2.321490 4.891500 -25.438100 -22.291500 -0.000108 -0.000004 12.239000 5.401810 -2.996500 -2.192480 -6.469440 -0.000000 -173.826000 -12.956600 3.902830 39.081100 -0.000007 -0.000012 -0.189968 0.315768 31.031700 40.985400 -0.000006 -0.000013 0.001613 5.744010 -70.266300 11.754300 -0.000000 0.000003 -0.000205 -0.001891 -16.648800 -2.192510 6.469440 -0.000001 171.501000 21.836000 -174.676000 -39.081100 -0.002282 -0.040193 -0.212757 0.357136 31.172900 -40.985400 0.000008 0.000006 4.082920 14.154900 -71.576700 -11.754300 -0.000006 -0.000006 -0.001890 -0.027336 -17.684700
0.000000 0.000000 0.000000 0.000000 0.000000 -0.000000 -0.967871 90.653100 -0.714738 90.219800 -2.935820 14.377500 15.735700 0.000005 -0.000001 86.684900 81.049900 -86.878300 8.984550 -0.406207 -0.000000 10.103600 -1.032430 -0.295424 16.377300 -0.000001 -0.000001 12.649000 -4.272690 -0.205877 6.456720 -0.000001 -0.000000 4.044660 -4.225630 -7.305680 12.994200 -0.242716 4.980390 -91.187900 5.215930 -77.151200 5.348090 -0.000007 -0.000001 -54.402000 33.035200 -27.083000 24.328600 0.000019 0.000005 11.211200 20.932600 -29.020700 22.291600 -0.000001 0.000005 4.525830 5.280380 0.615665 12.994500 -0.242716 -4.980390 88.985800 8.323610 -83.028000 -5.348130 -0.000001 -0.000004 -59.242900 29.221200 -16.820900 -24.328900 0.000322 -0.000009 2.269440 4.362390 -27.532300 -22.291500 -0.000108 -0.000004 12.578600 5.406840 -3.160720 -2.192480 -6.469440 -0.000000 -173.829000 -12.829400 3.873760 39.081100 -0.000007 -0.000012 -0.189153 0.313432 31.110800 40.985400 -0.000006 -0.000013 0.018867 5.751360 -70.137300 11.754300 -0.000000 0.000003 -0.000211 -0.001934 -16.650400 -2.192510 6.469440 -0.000001 171.491000 21.887500 -174.641000 -39.081100 -0.002282 -0.040193 -0.205253 0.343944 31.231000 -40.985400 0.000008 0.000006 4.093150 14.068800 -71.468400 -11.754300 -0.000006 -0.000006 -0.001803 -0.026222 -17.639400
